<svg version="1" xmlns="http://www.w3.org/2000/svg" width="809.333" height="809.333" viewBox="0 0 607.000000 607.000000"><path d="M542.1 38.7c-3.4 1.2-8.2 5.3-19.9 16.8l-15.5 15.2L540 104l33.2 33.3 14.9-15.1c9-9.1 15.6-16.6 16.6-18.9 2.4-5.7 2.7-11.5.8-17.9-1.5-5.3-2.8-6.8-20.3-24.5-11-11-20.5-19.6-23-20.9-5.6-2.9-14.3-3.5-20.1-1.3zM241.8 68.6c-.2.1-2.1.5-4.3.8-2.2.2-5.5.9-7.2 1.5-1.8.5-3.3.8-3.3.6 0-.6-15.5 6.1-21.5 9.3-9.7 5.1-31.3 20.1-32.3 22.4-.2.5-.8.8-1.3.8s-1.7.8-2.7 1.7c-1 1-3 2.7-4.3 3.8-1.3 1.1-5.1 4.2-8.4 7-3.3 2.7-6.8 5.7-7.8 6.5-1.1.8-3.3 2.7-5 4.2-1.8 1.6-3.4 2.9-3.7 2.9-.3.1-11.7.3-25.5.4-14.5.1-26.7.7-29 1.3-9.2 2.6-16.3 9.1-20.6 18.8-2 4.4-2.2 6.7-2.4 23.3-.1 18.2-.1 18.3-2.5 20.3-1.4 1.1-3.4 2.7-4.5 3.6-1.1.9-9.9 8-19.5 15.7-22.7 18.1-25.9 21.3-30.2 30.6-1.4 3-3.1 6.7-3.9 8.4C.7 255 .5 277.6.2 389.5 0 482.2.3 525.4 1 529.8c1.6 9.5 5.6 16.8 13 24.2 8.1 8.2 15.8 12.1 27 13.6 5.1.8 412.6.8 418 .1 17.4-2.3 32.7-14.7 38.4-31.2 1.5-4 2.9-19.2 2.8-29-.1-.6-.1-6.5-.2-13.2-.1-6.7.1-12.6.5-13.2.3-.6.2-1.1-.4-1.1-.7 0-.7-.8-.1-2.4.5-1.3.7-2.6.4-2.9-.7-.7-.7-24.4.1-25.6.3-.6.2-1.1-.4-1.1-.7 0-.7-.8-.1-2.4.5-1.3.7-2.6.4-2.9-.7-.7-.7-24.4.1-25.6.3-.6.2-1.1-.4-1.1-.7 0-.7-.8-.1-2.4.5-1.3.7-2.6.4-2.9-.7-.7-.7-24.4.1-25.6.3-.6.2-1.1-.4-1.1-.7 0-.7-.8-.1-2.4.5-1.3.7-2.6.4-2.9-.7-.7-.7-24.4.1-25.6.3-.6.2-1.1-.4-1.1-.7 0-.7-.8-.1-2.4.5-1.3.7-2.6.4-2.9-.7-.7-.7-24.4.1-25.6.3-.6.2-1.1-.4-1.1-.7 0-.7-.8-.1-2.4.5-1.3.7-2.6.4-2.9-.7-.7-.7-24.4.1-25.6.3-.6.2-1.1-.4-1.1-.7 0-.7-.8-.1-2.4.5-1.3.7-2.6.4-2.8-.2-.2-.5-5.8-.5-12.4-.2-7.5-.8-14.2-1.9-18-1.7-6.1-5.7-14-8.9-17.3-.9-1-2.7-3-4-4.4l-2.4-2.7 26.9-27.1c14.8-14.9 30.2-30.3 34.2-34.3l7.3-7.2-33.3-33.2L484.6 93l-26 25.9-26 26-3.3-3.9c-1.9-2.2-6.2-5.3-9.9-7.1l-6.4-3.2-26.3-.1c-22.8-.1-26.5-.3-28.2-1.8-1.1-.9-4.9-4-8.5-7-8.1-6.6-9.6-7.9-12.3-10.1-3.4-2.9-8.6-7.2-15.2-12.4-6.3-5-22.9-16.3-23.9-16.3-.4 0-2.3-1-4.4-2.3-2-1.3-6.6-3.5-10.2-4.9-10.2-4.1-11-4.4-15.2-5.2-1.6-.4-4-.9-5.5-1.2-3-.6-21.1-1.3-21.5-.8zm18.2 32c1.4.3 3 .6 3.7.8.7.1 1.6.5 1.9.9.4.4 1.3.7 2 .7 5.1 0 30.2 15.5 40.7 25l2.8 2.6H188.8l2.9-2.5c4.8-4.2 7-5.9 10-7.8 1.5-1 3.4-2.3 4-3 2.2-2 12.7-8.1 19.9-11.5 12.3-5.8 24.1-7.5 34.4-5.2zm145.7 61.7c.3.3.6 2.3.7 4.4.2 3.7-.4 4.3-40.2 43.9l-40.5 40.2-.1 17.8-.1 17.9-15.8.3c-19 .3-20.5-.2-26-8.6-7.9-12.4-19.8-19.1-34.9-19.8-9.8-.4-20.6 2.6-25.9 7.3-2 1.7-1.4 2.9-10-22.7-7-20.9-7.7-22.5-11.6-26.1-9.3-8.6-23.3-8.7-32.1-.2-4.3 4.2-6.1 8.3-15.1 35.8-4.5 13.7-8.9 26.4-9.6 28.2-1.9 4.6-6.1 6.1-17.1 6.4-9.3.2-12.5 1.2-16 5.1-3.7 4-5 9.1-3.6 14.4 2.3 8.6 7.7 11.6 20.9 11.6 10.3 0 15.9-.7 20.8-2.8 1.9-.8 3.6-1.3 3.8-1.2 1.1.8 12.3-9.2 16.5-14.7 2.2-2.7 4.8-9.4 9.4-23.5 2.7-8.5 5.4-16 6-16.5.6-.7.9-.7.7 0-.2.9.2 2.2 2.1 7 .4 1.1 3.8 11.2 7.5 22.5 3.7 11.2 7.5 21.6 8.6 23.1 2.3 3.3 8.5 6.3 12.4 6.1 8.4-.5 11.7-3.9 19.9-20.4 3.1-6.4 6.3-9 11.1-9 4.9 0 6.9 1.5 11.9 9 2.5 3.8 6.3 8.4 8.3 10.2 4.3 3.7 14 8.5 19.3 9.5 1.9.3 26.6.7 54.8.7l51.3.1 6.7-6.6 6.7-6.7-.2 13.3c-.2 12.5-.3 13.3-2.5 15-1.3 1-3.6 2.9-5.3 4.2-1.6 1.3-5.5 4.3-8.5 6.7-3 2.3-6 4.7-6.6 5.3-.6.5-2.8 2.3-5 4-2.1 1.6-6.7 5.4-10.3 8.3-3.7 2.9-8.1 6.5-10 8-1.9 1.5-5.2 4.2-7.5 6-5.2 4.2-6.1 4.9-11.6 9.2-2.5 1.9-4.7 3.7-5 4-.3.3-3.9 3.2-8 6.5s-8 6.4-8.6 7c-.6.5-2.9 2.5-5.2 4.3-2.2 1.8-5.3 4.5-6.9 5.8-1.5 1.4-6.2 5-10.3 8.2-4.1 3.1-7.6 6-7.8 6.4-.2.4-.8.8-1.4.8-.5 0-2.4 1.1-4.1 2.4-9.2 7-23.4 12.6-31.9 12.6-9.8 0-25.9-7.5-40.3-18.7-1.6-1.3-3.5-2.7-4-3.1-1.8-1.2-10.9-8.6-13.5-10.8-5.4-4.6-11.8-10-15.4-12.9-2.1-1.7-4.8-3.8-6-4.8-1.1-.9-17.6-14.1-36.6-29.3-19-15.2-35.8-28.8-37.5-30.3l-3-2.6.2-82c.1-45.1.2-83 .2-84.2l.1-2.3 36.3-.2c61-.5 274.8 0 275.4.5zM62.5 269.4v36.5l-3.5-2.7c-1.9-1.4-4-3.1-4.6-3.7-.6-.5-6.1-5-12.2-9.9l-11.1-8.9.3-10.1c.2-9.9 1.1-13.3 4.4-16.5C38.2 251.7 61.4 233 62 233c.3 0 .5 16.4.5 36.4zm400.8-16c1.4 1.3 3.2 3.9 4 5.8 1.8 4.2 2 20.7.3 22.3-2.3 2.3-29 23.5-29.5 23.5-.4 0-.6-7-.6-15.6v-15.6l11-11.4c6.1-6.2 11.3-11.3 11.6-11.4.3 0 1.8 1.1 3.2 2.4z"/></svg>