<?xml version="1.0" encoding="UTF-8"?><svg xmlns="http://www.w3.org/2000/svg" viewBox="0 0 500 77"><path fill="#FF8700" fill-rule="nonzero" d="M0 63.052l11.875-11.14c7.46 9.038 23.854 9.458 24.38 1.472.21-4.204-6.62-6.62-12.716-7.461C11.56 44.03.631 36.465.631 22.278.63 7.671 13.87 0 27.533 0c9.037 0 17.76 2.522 25.43 11.875l-12.295 9.457c-7.776-8.301-21.122-7.986-21.437.631.21 3.573 4.098 5.675 9.878 6.936 13.24 2.417 26.482 7.04 25.64 25.325-.63 14.397-15.762 22.279-29.423 22.279-8.933 0-18.39-4.519-25.326-13.451zM81.652 1.05v74.4h-18.81v-74.4h18.81zm65.258 14.817l-15.762 7.251c-4.099-9.983-20.702-7.671-20.702 2.102v25.536c0 11.664 21.752 11.56 21.752 0v-2.733h-11.874V32.261h29.95v18.496c0 17.129-14.292 25.746-29.215 25.746-14.712 0-29.424-8.617-29.424-25.746V25.22C91.635 8.407 106.347 0 121.06 0c9.668 0 20.702 3.993 25.851 15.868zm12.085 59.584V1.05h18.81l15.659 36.36 15.763-36.36h18.81v74.4h-18.916l.106-21.437 1.156-15.027-.631-.105-9.773 25.536h-12.926l-9.983-25.536-.525.105 1.26 15.027v21.438h-18.81zM276.377 1.05l26.586 74.4h-20.176l-4.834-14.921h-19.861l-4.624 14.922H233.29L259.248 1.05h17.129zm-14.082 42.77h11.14l-5.15-21.753h-.525l-5.465 21.753zm64.523-15.238l20.177-27.532h23.434l-29.424 35.94 29.319 38.46h-23.855l-19.02-26.586-.631.84v25.747h-18.916V1.05h18.916v27.532zm67.36-9.878v11.56h30.16v16.288h-30.16v11.14h32.787v17.759h-51.807V1.05h51.807v17.654h-32.787zm82.388 56.747l-17.234-23.645h-3.363v23.645h-19.02V1.05h29.739c15.342 0 27.217 7.04 27.637 24.485 0 13.766-5.57 21.543-14.607 24.38L500 75.452h-23.434zm-20.597-39.828h11.034c11.875 0 11.875-17.024 0-17.024h-11.034v17.024z"/></svg>